<?xml version="1.0" encoding="UTF-8"?>
<!-- Generator: Adobe Illustrator 16.0.0, SVG Export Plug-In . SVG Version: 6.00 Build 0)  -->
<!DOCTYPE svg PUBLIC "-//W3C//DTD SVG 1.1//EN" "http://www.w3.org/Graphics/SVG/1.1/DTD/svg11.dtd">
<svg version="1.1" id="Calque_1" xmlns="http://www.w3.org/2000/svg" xmlns:xlink="http://www.w3.org/1999/xlink" x="0px" y="0px" width="289.125px" height="174.807px" viewBox="0 0 289.125 174.807" enable-background="new 0 0 289.125 174.807" xml:space="preserve">
<g>
	<circle fill="#FFFFFF" cx="144.393" cy="87.512" r="56.914"/>
	<path fill="#AB0634" d="M144.27,0C95.997,0,56.866,39.131,56.866,87.4c0,48.272,39.131,87.406,87.403,87.406   c48.268,0,87.401-39.134,87.401-87.406C231.67,39.131,192.538,0,144.27,0z M144.319,142.815c-30.703,0-55.597-24.887-55.597-55.591   c0-30.7,24.894-55.591,55.597-55.591c30.703,0,55.593,24.891,55.593,55.591C199.913,117.929,175.022,142.815,144.319,142.815z"/>
	<g>
		<g>
			<path fill="#FFFFFF" d="M99.834,147.467c-1.897,0.763-3.147,0.683-4.506-0.365c-1.76-1.356-2.04-3.799-0.61-5.654     c2.212-2.869,6.523-3.477,9.336-1.31c1.089,0.84,1.565,1.727,1.583,2.929c1.186-0.152,2.082-0.011,2.579,0.373     c0.325,0.251,0.408,0.619,0.187,0.905c-0.059,0.077-0.21,0.234-0.352,0.338c-1.183,0.98-3.074,2.603-3.769,3.226l-3.481,3.17     c-0.969,0.9-1.291,1.2-1.469,1.43c-0.191,0.249-0.223,0.408-0.164,0.727c0.091,0.437,0.07,0.543-0.092,0.753     c-0.413,0.535-0.87,0.457-1.847-0.296l-0.975-0.751l-0.823-0.635c-1.167-0.899-1.321-1.172-0.982-1.612     c0.25-0.324,0.435-0.365,1.181-0.187c0.622,0.144,0.816,0.05,2.092-1.131L99.834,147.467z M97.647,143.737     c-0.869,1.129-0.912,2.133-0.107,2.751c1.28,0.99,4.215-0.286,5.999-2.6c0.649-0.841,0.584-1.745-0.162-2.32     C102.077,140.564,99.285,141.614,97.647,143.737z"/>
			<path fill="#FFFFFF" d="M118.79,153.681c-1.31,1.864-1.006,1.447-1.069,1.524c-0.302,0.472-0.501,0.777-0.604,0.997     c-0.186,0.393-0.081,0.735,0.326,1.115c0.374,0.338,0.454,0.509,0.352,0.728c-0.155,0.327-0.436,0.408-1.678,0.382     c-0.713-0.017-1.59-0.084-2.229-0.146c-0.151-0.018-0.315-0.068-0.424-0.12c-0.48-0.227-0.537-0.841-0.135-1.693     c0.176-0.37,0.259-0.546,0.842-1.552c-1.966,1.501-3.665,1.873-5.236,1.13c-1.571-0.744-2.243-2.317-1.571-3.736     c0.134-0.284,0.364-0.656,0.604-0.996l0.273-0.352l0.251-0.363l0.241-0.339l0.964-1.361c0.21-0.273,0.355-0.525,0.449-0.722     c0.175-0.371,0.115-0.64-0.216-0.957c-0.275-0.264-0.356-0.488-0.253-0.708c0.125-0.262,0.51-0.399,1.04-0.39     c1.914,0.077,2.996,0.216,3.498,0.454c0.416,0.195,0.503,0.744,0.214,1.355c-0.155,0.328-0.438,0.755-0.794,1.228     c-0.283,0.373-0.577,0.77-0.882,1.186l-1.005,1.448l-0.201,0.252c-0.638,0.954-0.712,1.054-0.836,1.315     c-0.267,0.567-0.083,1.136,0.485,1.404c0.589,0.279,1.438,0.12,2.184-0.437c1.201-0.848,2.615-2.422,3.703-4.045     c1.036-1.513,1.121-1.58,1.864-1.229l1.768,0.837c0.371,0.175,0.483,0.334,0.4,0.51c0,0-0.178,0.263-0.429,0.624l-1.51,2.118     L118.79,153.681z"/>
			<path fill="#FFFFFF" d="M126.005,158.053c-0.332,0.634-0.532,1.078-0.553,1.147c-0.104,0.272,0.021,0.458,0.502,0.795     c0.299,0.187,0.392,0.389,0.319,0.644c-0.14,0.489-0.554,0.621-2.256,0.689c-1.045,0.056-1.741,0.032-2.066-0.061     c-0.534-0.152-0.76-0.593-0.589-1.197c0.1-0.349,0.334-0.909,0.609-1.434c0.338-0.656,0.612-1.182,0.758-1.517l1.078-2.203     c0.183-0.376,0.328-0.711,0.389-0.92c0.099-0.348-0.011-0.58-0.366-0.832c-0.354-0.251-0.438-0.4-0.366-0.655     c0.126-0.443,0.659-0.642,2.222-0.75c0.952-0.08,1.802-0.064,2.196,0.048c0.512,0.145,0.722,0.556,0.562,1.114     c-0.085,0.302-0.37,0.948-0.724,1.575c-0.119,0.242-0.352,0.704-0.659,1.345L126.005,158.053z M130.268,149.071     c-0.303,1.068-1.583,1.684-2.769,1.346c-0.998-0.284-1.569-1.1-1.333-1.935c0.305-1.068,1.585-1.685,2.793-1.341     C129.98,147.434,130.513,148.213,130.268,149.071z"/>
			<path fill="#FFFFFF" d="M139.745,153.848c1.123-4.269,2.762-5.971,5.559-5.821c1.375,0.074,2.402,0.781,2.355,1.649     c-0.037,0.7-0.621,1.225-1.346,1.185c-0.361-0.019-0.689-0.204-0.916-0.507c-0.338-0.454-0.36-0.479-0.578-0.49     c-0.217-0.013-0.394,0.124-0.553,0.382c-0.371,0.608-0.486,0.965-1.079,3.449c-0.003,0.07-0.034,0.19-0.065,0.333l1.253,0.067     c0.677,0.037,0.932,0.243,0.904,0.751c-0.038,0.698-0.466,1.015-1.383,0.966l-1.181-0.063l-0.472,2.03     c-1.071,4.659-2.078,7.217-3.439,8.716c-1.156,1.27-2.396,1.832-3.843,1.755c-1.182-0.064-1.926-0.611-1.883-1.407     c0.039-0.747,0.675-1.318,1.397-1.279c0.555,0.029,0.764,0.187,1.069,0.808c0.044,0.098,0.162,0.152,0.33,0.161     c0.41,0.022,0.748-0.419,1.174-1.605c0.228-0.642,0.556-1.783,0.812-2.979l0.22-0.931l0.221-0.957l0.221-0.955l0.817-3.535     l-0.748-0.04c-0.627-0.034-0.883-0.24-0.855-0.724c0.038-0.723,0.394-1.042,1.165-1.002L139.745,153.848z"/>
			<path fill="#FFFFFF" d="M157.792,157.132c-0.119,2.275-0.084,1.761-0.098,1.859c-0.004,0.56-0.01,0.926,0.02,1.166     c0.051,0.432,0.322,0.666,0.869,0.771c0.498,0.088,0.654,0.19,0.682,0.43c0.045,0.359-0.148,0.579-1.215,1.215     c-0.615,0.364-1.393,0.773-1.967,1.061c-0.137,0.064-0.303,0.109-0.424,0.123c-0.527,0.062-0.902-0.429-1.012-1.362     c-0.049-0.408-0.072-0.6-0.113-1.763c-0.869,2.316-2.109,3.533-3.836,3.738s-3.133-0.771-3.314-2.33     c-0.039-0.312-0.041-0.749-0.018-1.165l0.045-0.444l0.02-0.438l0.021-0.417l0.096-1.665c0.031-0.344,0.021-0.635-0.002-0.851     c-0.051-0.407-0.242-0.604-0.693-0.696c-0.373-0.077-0.561-0.226-0.588-0.465c-0.035-0.287,0.219-0.609,0.674-0.882     c1.66-0.952,2.652-1.41,3.203-1.476c0.457-0.054,0.822,0.364,0.902,1.037c0.043,0.359,0.029,0.871-0.021,1.461     c-0.041,0.467-0.08,0.958-0.117,1.474l-0.084,1.76l-0.033,0.321c-0.035,1.146-0.045,1.269-0.008,1.558     c0.074,0.623,0.531,1.006,1.154,0.932c0.648-0.076,1.283-0.662,1.619-1.529c0.568-1.356,0.928-3.441,0.988-5.396     c0.074-1.833,0.111-1.934,0.928-2.03l1.941-0.231c0.408-0.047,0.586,0.028,0.609,0.221c0,0-0.012,0.317-0.031,0.757l-0.154,2.598     L157.792,157.132z"/>
			<path fill="#FFFFFF" d="M163.653,157.501c-0.299-1.442-0.488-2.173-0.65-2.576c-0.201-0.493-0.295-0.532-1.029-0.547     c-0.291-0.013-0.426-0.088-0.51-0.29c-0.137-0.335,0.117-0.803,0.939-1.733c0.607-0.689,1.225-1.227,1.58-1.371     c0.471-0.19,0.926,0.226,1.324,1.209c0.199,0.493,0.318,0.913,0.553,1.939c0.27-2.87,1.057-4.336,2.668-4.989     c1.41-0.572,2.896-0.053,3.396,1.178c0.125,0.313,0.176,0.502,0.287,1.03c0.213-2.691,0.994-4.103,2.672-4.783     c1.412-0.571,3.041,0.046,3.568,1.343c0.234,0.583,0.217,0.538,0.539,2.231l0.279,1.269c0.104,0.452,0.174,0.815,0.205,1.088     c0.043,0.166,0.084,0.331,0.129,0.443c0.145,0.358,0.459,0.492,0.975,0.412c0.471-0.06,0.682,0.012,0.781,0.258     s0.023,0.511-0.283,0.846c-0.973,1.071-2.42,2.257-3.025,2.501c-0.426,0.173-0.873-0.036-1.074-0.529     c-0.18-0.447-0.363-1.285-0.814-3.683l-0.32-1.434c-0.201-1.013-0.271-1.246-0.379-1.515c-0.254-0.626-0.752-0.894-1.244-0.693     c-0.762,0.308-1.203,1.53-1.156,3.257c0.002,0.648,0.158,1.811,0.408,3.325c0.133,0.779,0.258,1.407,0.357,1.783     c0.201,0.753,0.111,0.919-0.648,1.228l-1.457,0.59c-0.512,0.208-0.822,0.151-0.918-0.149c-0.035-0.09-0.086-0.277-0.141-0.541     l-0.701-3.338l-0.098-0.432c-0.354-1.522-0.26-1.093-0.334-1.401c-0.104-0.453-0.219-0.798-0.299-0.998     c-0.264-0.65-0.762-0.917-1.277-0.708c-0.738,0.299-1.137,1.372-1.131,3.062c-0.018,0.92,0.146,2.156,0.396,3.358l0.154,0.64     l0.135,0.65l0.123,0.627c0.16,0.716,0.086,0.851-0.766,1.195l-1.455,0.59c-0.471,0.19-0.758,0.125-0.854-0.175     c-0.025-0.067-0.072-0.309-0.154-0.642L163.653,157.501z"/>
			<path fill="#FFFFFF" d="M189.991,147.379c0.832-0.623,1.121-1.082,1.988-3.185c0.117-0.328,0.223-0.469,0.377-0.584     c0.266-0.17,0.623-0.136,0.795,0.096c0.248,0.329,0.154,1.125-0.277,2.202c-0.533,1.339-1.553,2.677-2.709,3.549     c-2.492,1.87-5.211,1.708-6.793-0.396c-2.061-2.741-1.072-7.259,2.074-9.623c1.855-1.393,3.916-1.582,4.771-0.443     c0.74,0.984,0.572,2.41-0.459,4.091c-0.613,1.035-1.641,2.2-3.422,3.931C187.538,148.255,188.68,148.365,189.991,147.379z      M187.698,140.947c-0.377-0.502-1.078-0.55-1.676-0.1c-1.082,0.813-1.277,2.923-0.445,4.956     C187.696,143.759,188.481,141.991,187.698,140.947z"/>
		</g>
		<g>
			<path fill="#FFFFFF" d="M78.031,44.925c-0.067,0.587-0.021,0.648,0.45,0.985c0.06,0.039,0.322,0.21,0.672,0.467l0.687,0.449     l7.802,5.107c0.786,0.515,1.098,0.345,1.994-1.024c1.159-1.771,1.322-2.326,1.01-3.565c-0.278-1.16-0.301-1.434-0.09-1.755     c0.25-0.384,0.697-0.493,1.061-0.257c0.302,0.199,0.754,0.695,1.429,1.512c0.521,0.657,0.543,0.931,0.162,1.515l-5.626,8.596     c-0.29,0.442-0.796,0.6-1.14,0.376c-0.222-0.146-0.343-0.398-0.287-0.706l0.005-0.228c0.068-0.587,0.034-0.667-0.449-0.983     c-0.102-0.067-0.344-0.225-0.673-0.47l-0.686-0.448l-6.674-4.367l-0.686-0.449c-0.334-0.191-0.597-0.363-0.698-0.428     c-0.482-0.317-0.658-0.315-1.083-0.02l-0.23,0.136c-0.214,0.148-0.527,0.145-0.748-0.001c-0.202-0.132-0.34-0.451-0.288-0.705     c0.019-0.16,0.071-0.328,0.162-0.469l1.806-2.758c0.869-1.328,0.829-1.268,1.076-1.423c0.211-0.149,0.559-0.151,0.761-0.021     c0.222,0.146,0.324,0.385,0.287,0.706L78.031,44.925z"/>
			<path fill="#FFFFFF" d="M96.99,38.806c1.31,1.415,1.635,1.41,3.293-0.125c1.713-1.585,2.098-2.304,2.124-3.869     c0.022-0.578,0.083-0.832,0.312-1.044c0.354-0.327,0.847-0.29,1.19,0.082c0.229,0.248,0.244,0.265,0.902,1.329     c0.547,0.84,0.523,1.028-0.201,1.697l-8.193,7.58c-0.372,0.343-0.899,0.373-1.178,0.072c-0.18-0.194-0.221-0.485-0.126-0.736     l0.077-0.236c0.224-0.502,0.194-0.64-0.182-1.047c-0.098-0.105-0.294-0.317-0.555-0.636l-0.558-0.601l-5.415-5.854l-0.557-0.601     c-0.296-0.285-0.492-0.497-0.574-0.585c-0.392-0.425-0.511-0.446-1.046-0.281l-0.225,0.077c-0.273,0.057-0.562-0.005-0.742-0.2     c-0.277-0.301-0.206-0.825,0.165-1.169l7.84-7.254c0.494-0.457,0.737-0.551,1.071-0.401c0.168,0.075,0.566,0.363,0.994,0.756     c0.181,0.16,0.362,0.321,0.461,0.427c0.442,0.479,0.475,0.939,0.104,1.283c-0.282,0.26-0.506,0.303-1.184,0.208     c-1.119-0.146-1.813,0.2-3.403,1.672c-1.43,1.322-1.53,1.745-0.681,2.665l2.356,2.546l2.613-2.417     c0.354-0.328,0.5-0.595,0.549-1.002c0.11-0.66,0.112-0.694,0.323-0.89c0.372-0.344,0.759-0.209,1.446,0.533     c0.866,0.938,0.933,1.009,0.974,1.3c0.04,0.257-0.037,0.493-0.214,0.657c-0.211,0.196-0.35,0.225-0.844,0.222     c-0.458-0.035-0.666,0.058-1.054,0.418l-2.632,2.434L96.99,38.806z"/>
			<path fill="#FFFFFF" d="M127.663,21.701c0.238,0.631-0.172,1.866-1.062,3.052c-0.905,1.215-2.298,2.228-3.873,2.82     c-4.617,1.736-9.329-0.198-10.932-4.46c-1.688-4.488,0.743-9.573,5.427-11.335c1.936-0.728,4.696-0.84,5.899-0.237     c0.226,0.121,0.33,0.262,0.554,0.719c0.206,0.412,0.612,1.288,0.715,1.559c0.246,0.655,0.095,1.071-0.468,1.284     c-0.25,0.093-0.524,0.042-0.79-0.115c-0.133-0.079,0.192,0.236-1.049-0.944c-1.114-1.049-2.642-1.35-4.127-0.79     c-2.657,0.999-3.709,4.354-2.419,7.782c1.459,3.88,4.182,5.584,7.154,4.467c1.329-0.5,2.423-1.556,3.046-2.974     c0.491-1.085,0.556-1.188,0.917-1.323C127.061,21.052,127.502,21.272,127.663,21.701z"/>
			<path fill="#FFFFFF" d="M133.979,18.959c-0.049,0.271-0.104,0.47-0.139,0.617c-0.312,1.093-0.473,2.003-0.435,2.436     c0.03,0.335,0.246,0.582,0.723,0.781c0.379,0.183,0.538,0.339,0.563,0.627c0.028,0.312-0.166,0.571-0.539,0.726     c-0.164,0.062-0.164,0.062-0.739,0.114l-0.887,0.079c-1.629,0.146-1.604,0.145-1.855,0.045c-0.276-0.12-0.411-0.277-0.438-0.589     c-0.025-0.265,0.077-0.468,0.394-0.714c0.587-0.463,0.491-0.188,1.154-3.296c0.823-3.751,2.553-8.986,3.665-11.142     c0.413-0.786,0.642-0.928,1.599-1.014c1.055-0.095,1.257,0.009,1.893,0.896c1.822,2.546,4.11,6.793,5.587,10.337     c1.047,2.521,1.05,2.543,1.68,2.851c0.328,0.164,0.463,0.319,0.49,0.608c0.033,0.384-0.162,0.62-0.633,0.758     c-0.188,0.065-0.164,0.063-0.931,0.132l-1.293,0.115l-1.438,0.129c-1.486,0.133-1.784,0.039-1.836-0.536     c-0.03-0.337-0.008-0.363,0.468-0.72c0.225-0.19,0.375-0.396,0.358-0.588c-0.005-0.048-0.04-0.166-0.101-0.307l-0.311-0.771     c-0.803-1.959-0.651-1.61-0.866-2.123L133.979,18.959z M139.354,16.664c-1.319-2.856-1.81-3.756-2.987-5.587     c-0.688,1.779-1.252,3.571-1.926,6.026L139.354,16.664z"/>
			<path fill="#FFFFFF" d="M158.356,12.486c0.27,1.711,0.137,0.844,0.42,2.605c0.523,3.492,0.348,2.369,0.533,3.444     c1.125-1.556,1.41-1.963,2.092-2.948c0.508-0.753-0.484,0.757,3.119-4.625c0.295-0.454,0.533-0.649,0.814-0.687     c0.131-0.046,0.277-0.039,0.418-0.008l2.963,0.643c1.342,0.29,1.27,0.274,1.479,0.443c0.234,0.173,0.318,0.463,0.254,0.77     c-0.088,0.399-0.289,0.529-1.016,0.593c-0.506,0.063-0.697,0.269-0.846,0.951l-0.119,0.541c-0.041,0.312-0.098,0.571-0.145,0.783     l-1.682,7.771l-0.174,0.8c-0.064,0.406-0.125,0.688-0.15,0.807c-0.119,0.541-0.037,0.731,0.369,1.017l0.211,0.169     c0.213,0.145,0.346,0.444,0.289,0.704c-0.051,0.234-0.301,0.477-0.557,0.52c-0.156,0.041-0.33,0.052-0.494,0.017l-2.234-0.484     l-0.729-0.158c-1.834-0.397-1.787-0.387-1.986-0.604c-0.156-0.182-0.225-0.442-0.184-0.63c0.057-0.261,0.244-0.441,0.559-0.521     l0.211-0.077c0.551-0.151,0.613-0.212,0.734-0.777c0.047-0.212,0.127-0.466,0.197-0.796l0.172-0.8l1.725-8.059     c-2.129,3.236-2.311,3.492-2.23,3.362c-0.848,1.296,0.23-0.27-3.268,4.74c-0.6,0.832-0.875,0.969-1.699,0.792     c-1.057-0.229-1.242-0.395-1.432-1.347c-0.398-1.788-0.646-3.148-0.787-3.968c-0.971-5.635-0.656-3.79-0.98-5.587l-1.781,7.873     c-0.396,1.714-0.365,2.14,0.125,2.492c0.686,0.47,0.801,0.618,0.711,1.041c-0.094,0.425-0.508,0.63-1.023,0.52l-1.975-0.43     c-1.383-0.323-1.225-0.264-1.438-0.41c-0.229-0.196-0.318-0.462-0.258-0.744c0.088-0.402,0.287-0.53,0.969-0.604     c0.553-0.054,0.492,0.107,1.09-2.304l1.787-7.798l0.127-0.466l0.203-0.941c0.18-0.824,0.129-0.935-0.619-1.343     c-0.332-0.17-0.494-0.452-0.426-0.759c0.068-0.328,0.418-0.573,0.855-0.553c0.195,0.018,0.459,0.05,0.789,0.121l1.455,0.316     c3.176,0.688,2.844,0.517,3.102,1.707c0.004,0.099,0.025,0.227,0.053,0.331l0.189,1.275L158.356,12.486z"/>
			<path fill="#FFFFFF" d="M176.036,27.346l-0.359,0.734c-0.16,0.379-0.287,0.638-0.34,0.746c-0.258,0.519-0.232,0.638,0.113,1.075     l0.141,0.205c0.162,0.213,0.209,0.504,0.092,0.743c-0.105,0.216-0.408,0.391-0.666,0.371c-0.16,0.001-0.334-0.031-0.484-0.104     l-2.008-0.987l-0.689-0.341c-1.857-0.913-1.555-0.765-1.707-0.893c-0.26-0.234-0.35-0.6-0.211-0.882     c0.119-0.236,0.385-0.4,0.666-0.37l0.248-0.013c0.516,0.038,0.676-0.069,0.922-0.567c0.053-0.108,0.18-0.368,0.383-0.724     l0.361-0.736l3.52-7.157l0.363-0.734c0.158-0.378,0.285-0.638,0.338-0.745c0.256-0.52,0.223-0.67-0.113-1.076l-0.141-0.204     c-0.174-0.193-0.207-0.506-0.092-0.744c0.107-0.215,0.408-0.391,0.666-0.37c0.291,0.009,0.225-0.022,1.629,0.667l1.965,0.966     c1.361,0.669,1.316,0.648,1.447,0.928c0.121,0.193,0.121,0.463,0.035,0.635c-0.115,0.237-0.373,0.381-0.643,0.382l-0.248,0.012     c-0.559-0.007-0.666,0.049-0.922,0.567c-0.053,0.107-0.182,0.367-0.383,0.725l-0.359,0.735L176.036,27.346z"/>
			<path fill="#FFFFFF" d="M196.969,37.507c-3.018,3.662-8.334,4.06-12.16,0.909c-3.768-3.105-4.344-8.232-1.324-11.896     c3.049-3.699,8.176-4.098,12-0.945C199.346,28.756,199.971,33.861,196.969,37.507z M186.891,29.08     c-2.648,3.216-3.027,6.399-0.967,8.099c2.115,1.743,5.076,0.874,7.666-2.269s2.936-6.323,0.873-8.021     C192.422,25.205,189.344,26.104,186.891,29.08z"/>
			<path fill="#FFFFFF" d="M211.03,48.973c1.004-0.664,1.041-0.745,0.941-1.72c-0.021-0.387,0.072-0.594,0.332-0.768     c0.402-0.266,0.83-0.057,1.24,0.565l0.816,1.276l0.398,0.603c0.451,0.682,0.449,1.116,0.027,1.396     c-0.322,0.213-0.422,0.192-1.127-0.264c-0.422-0.241-0.623-0.195-1.506,0.39l-9.906,6.555c-0.924,0.61-1.252,0.51-1.955-0.553     c-0.465-0.703-0.451-0.683,0.77-3.597c0.762-1.772,1.809-4.515,2.863-7.376c0.393-1.065,0.668-1.826,1.25-3.566l-7.273,4.812     c-1.064,0.705-1.172,0.892-0.963,1.82c0.092,0.4,0.025,0.646-0.236,0.819c-0.443,0.292-0.822,0.111-1.301-0.61l-1.061-1.605     l-0.334-0.502c-0.438-0.662-0.455-1.082-0.033-1.362c0.361-0.239,0.475-0.198,1.227,0.371c0.359,0.281,0.654,0.202,1.658-0.462     l7.396-4.893c1.393-0.951,1.393-0.951,1.541-1.252c0.174-0.346,0.168-0.399-0.047-1.207c-0.086-0.348,0.008-0.641,0.27-0.815     c0.461-0.305,0.809-0.13,1.299,0.612l0.975,1.518l0.846,1.23c0.438,0.663,0.402,1.003-0.295,3.051     c-0.248,0.714-0.621,1.768-1.135,3.087c-0.137,0.407-0.305,0.808-0.473,1.207l-0.467,1.262c-1.281,3.3-0.83,2.105-1.465,3.768     L211.03,48.973z"/>
		</g>
	</g>
	<g>
		<path fill="#00BCE4" d="M144.314,40.54c-13.285-0.004-22.221,5.588-23.212,10.654c0,0-2.266,5.066-0.848,13.646    c0.767,4.65,5.388,15.797,6.558,48.27c2.738-1.065,6.188-1.882,10.067-2.343c-0.715-1.867-4.239-11.274-5.29-14.916    c-1.719-5.919-2.843-10.843-2.515-10.991c0.324-0.148,1.982,4.53,3.694,10.454c1.098,3.781,4.446,13.391,4.834,15.375    c0.943-0.1,1.904-0.184,2.884-0.24c-0.544-2.085-2.591-12.814-3.329-18.048c-1.021-7.301-1.525-13.296-1.125-13.379    c0.406-0.093,1.565,5.754,2.588,13.058c0.745,5.322,2.463,16.188,2.507,18.337c0.902-0.041,1.829-0.064,2.763-0.071    c-0.276-2.632-0.47-11.662-0.466-17.757c0-8.725,0.395-19.541,0.874-19.541c0.483,0,0.872,10.813,0.869,19.539    c-0.001,6.096-0.19,15.125-0.473,17.758c1.037,0.007,2.051,0.038,3.053,0.091c-0.035-1.86,1.701-13.055,2.512-18.834    c1.031-7.301,2.188-13.147,2.592-13.057c0.404,0.089-0.104,6.079-1.129,13.382c-0.801,5.689-2.928,16.73-3.469,18.532    c0.969,0.062,1.92,0.144,2.842,0.245c0.391-1.983,3.74-11.6,4.842-15.389c1.723-5.92,3.377-10.595,3.703-10.448    c0.33,0.15-0.801,5.071-2.52,10.992c-1.055,3.648-4.586,13.061-5.305,14.927c4.064,0.492,7.656,1.378,10.438,2.527    c1.082-32.8,4.91-43.372,5.941-48.459c1.482-7.327-0.641-13.866-0.641-13.866C166.602,46.128,157.602,40.54,144.314,40.54z     M126.859,115.626c0.271,4.174,0.497,8.467,0.646,12.81c-0.02,0.075-0.026,0.153-0.026,0.231c0,2.246,7.617,4.067,17.015,4.072    c9.372,0,16.977-1.809,17.02-4.048c0.006,0.005,0.014,0.006,0.02,0.012c0.139-4.387,0.346-8.707,0.596-12.906    c-4.398-1.795-10.76-2.921-17.833-2.927C137.432,112.869,131.242,113.927,126.859,115.626z M144.561,131.717    c-8.335-0.002-15.235-1.491-16.489-3.434c4.172-1.579,9.896-2.557,16.22-2.554c6.54,0,12.438,1.048,16.641,2.725    C159.401,130.316,152.657,131.72,144.561,131.717z M43.775,63.889C29.094,67.344,10.297,69.205,0,59.855    c0,0,22.206,24.978,40.947,20.567c0,0-18.165,7.469-27.369,0.966c0,0,11.69,16.472,32.057,12.736c0,0-11.264,6.116-21.536,3.72    c0,0,16.779,11.769,30.208,8.614c15.495-3.648,42.573-10.442,55.321,11.754c0,0,6.511-10.69-2.982-31.171    C95.107,62.146,65.566,58.768,43.775,63.889z M289.125,59.855c-10.299,9.35-29.094,7.488-43.777,4.033    c-21.787-5.121-51.328-1.742-62.867,23.153c-9.492,20.48-2.984,31.171-2.984,31.171c12.748-22.196,39.826-15.402,55.324-11.754    c13.428,3.154,30.207-8.614,30.207-8.614c-10.275,2.396-21.539-3.72-21.539-3.72c20.367,3.735,32.059-12.736,32.059-12.736    c-9.205,6.503-27.371-0.966-27.371-0.966C266.92,84.833,289.125,59.855,289.125,59.855z"/>
	</g>
</g>
<g>
</g>
<g>
</g>
<g>
</g>
<g>
</g>
<g>
</g>
<g>
</g>
<g>
</g>
<g>
</g>
<g>
</g>
<g>
</g>
<g>
</g>
<g>
</g>
</svg>